<svg xmlns="http://www.w3.org/2000/svg" xmlns:xlink="http://www.w3.org/1999/xlink" width="500" zoomAndPan="magnify" viewBox="0 0 375 374.999991" height="500" preserveAspectRatio="xMidYMid meet" version="1.0"><defs><g/></defs><g fill="#000000" fill-opacity="1"><g transform="translate(17.707673, 251.309663)"><g><path d="M 88.390625 -170.4375 C 98.941406 -170.4375 108.882812 -168.203125 118.21875 -163.734375 C 127.550781 -159.273438 135.664062 -153.191406 142.5625 -145.484375 C 149.457031 -137.773438 154.929688 -128.722656 158.984375 -118.328125 C 163.046875 -107.941406 165.078125 -96.90625 165.078125 -85.21875 C 165.078125 -73.53125 163.046875 -62.488281 158.984375 -52.09375 C 154.929688 -41.707031 149.457031 -32.660156 142.5625 -24.953125 C 135.664062 -17.242188 127.550781 -11.15625 118.21875 -6.6875 C 108.882812 -2.226562 98.941406 0 88.390625 0 L 71.09375 0 C 77.75 0 84.039062 -2.269531 89.96875 -6.8125 C 95.894531 -11.363281 101.046875 -17.535156 105.421875 -25.328125 C 109.804688 -33.117188 113.253906 -42.164062 115.765625 -52.46875 C 118.285156 -62.78125 119.546875 -73.695312 119.546875 -85.21875 C 119.546875 -96.738281 118.285156 -107.648438 115.765625 -117.953125 C 113.253906 -128.265625 109.804688 -137.316406 105.421875 -145.109375 C 101.046875 -152.898438 95.894531 -159.066406 89.96875 -163.609375 C 84.039062 -168.160156 77.75 -170.4375 71.09375 -170.4375 Z M 63.546875 -168.984375 L 63.546875 0 L 6.09375 0 C 10.144531 0 13.59375 -1.660156 16.4375 -4.984375 C 19.28125 -8.316406 20.703125 -12.007812 20.703125 -16.0625 L 20.703125 -154.375 C 20.703125 -158.425781 19.28125 -162.113281 16.4375 -165.4375 C 13.59375 -168.769531 10.144531 -170.4375 6.09375 -170.4375 L 63.546875 -170.4375 Z M 63.546875 -168.984375 "/></g></g></g><g fill="#000000" fill-opacity="1"><g transform="translate(188.86139, 251.309663)"><g><path d="M 82.78125 -170.4375 C 78.394531 -170.4375 74.296875 -168.160156 70.484375 -163.609375 C 66.671875 -159.066406 63.34375 -152.898438 60.5 -145.109375 C 57.664062 -137.316406 55.4375 -128.265625 53.8125 -117.953125 C 52.1875 -107.648438 51.375 -96.738281 51.375 -85.21875 C 51.375 -73.695312 52.1875 -62.78125 53.8125 -52.46875 C 55.4375 -42.164062 57.664062 -33.117188 60.5 -25.328125 C 63.34375 -17.535156 66.671875 -11.363281 70.484375 -6.8125 C 74.296875 -2.269531 78.394531 0 82.78125 0 C 72.226562 0 62.285156 -2.226562 52.953125 -6.6875 C 43.617188 -11.15625 35.460938 -17.242188 28.484375 -24.953125 C 21.503906 -32.660156 16.023438 -41.707031 12.046875 -52.09375 C 8.078125 -62.488281 6.09375 -73.53125 6.09375 -85.21875 C 6.09375 -96.90625 8.078125 -107.941406 12.046875 -118.328125 C 16.023438 -128.722656 21.503906 -137.773438 28.484375 -145.484375 C 35.460938 -153.191406 43.617188 -159.273438 52.953125 -163.734375 C 62.285156 -168.203125 72.226562 -170.4375 82.78125 -170.4375 Z M 110.0625 -155.09375 C 110.0625 -157.53125 109.367188 -159.640625 107.984375 -161.421875 C 106.609375 -163.210938 104.863281 -164.71875 102.75 -165.9375 C 100.632812 -167.15625 98.316406 -168.085938 95.796875 -168.734375 C 93.285156 -169.378906 90.894531 -169.867188 88.625 -170.203125 C 94.46875 -169.710938 100.148438 -168.53125 105.671875 -166.65625 C 111.191406 -164.789062 116.304688 -162.4375 121.015625 -159.59375 C 125.722656 -156.757812 129.898438 -153.554688 133.546875 -149.984375 C 137.203125 -146.410156 140.25 -142.757812 142.6875 -139.03125 C 144.300781 -136.269531 145.554688 -133.550781 146.453125 -130.875 C 147.347656 -128.195312 147.796875 -125.554688 147.796875 -122.953125 C 147.796875 -119.390625 147.101562 -116.023438 145.71875 -112.859375 C 144.34375 -109.691406 142.476562 -106.929688 140.125 -104.578125 C 137.769531 -102.222656 135.007812 -100.351562 131.84375 -98.96875 C 128.675781 -97.59375 125.304688 -96.90625 121.734375 -96.90625 C 118.171875 -96.90625 114.804688 -97.59375 111.640625 -98.96875 C 108.472656 -100.351562 105.710938 -102.222656 103.359375 -104.578125 C 101.003906 -106.929688 99.132812 -109.691406 97.75 -112.859375 C 96.375 -116.023438 95.6875 -119.390625 95.6875 -122.953125 C 95.6875 -126.367188 96.296875 -129.617188 97.515625 -132.703125 C 98.734375 -135.785156 100.476562 -138.546875 102.75 -140.984375 C 105.019531 -143.253906 106.804688 -145.601562 108.109375 -148.03125 C 109.410156 -150.46875 110.0625 -152.820312 110.0625 -155.09375 Z M 162.40625 -66.71875 C 158.34375 -66.71875 154.890625 -65.050781 152.046875 -61.71875 C 149.210938 -58.394531 147.796875 -54.703125 147.796875 -50.640625 L 147.796875 0 C 144.867188 -1.78125 141.703125 -3.238281 138.296875 -4.375 C 134.890625 -5.519531 130.914062 -6.09375 126.375 -6.09375 C 122.476562 -6.09375 118.945312 -5.847656 115.78125 -5.359375 C 112.613281 -4.867188 109.566406 -4.296875 106.640625 -3.640625 C 103.722656 -2.992188 100.800781 -2.347656 97.875 -1.703125 C 94.957031 -1.054688 91.875 -0.570312 88.625 -0.25 C 91.382812 -0.570312 94.222656 -1.335938 97.140625 -2.546875 C 100.066406 -3.765625 102.664062 -5.109375 104.9375 -6.578125 L 104.9375 -50.640625 C 104.9375 -54.703125 103.515625 -58.394531 100.671875 -61.71875 C 97.835938 -65.050781 94.3125 -66.71875 90.09375 -66.71875 Z M 162.40625 -66.71875 "/></g></g></g><g fill="#000000" fill-opacity="1"><g transform="translate(36.08491, 294.932733)"><g><path d="M 15.625 -30.625 C 21.59375 -30.625 26.0625 -29.347656 29.03125 -26.796875 C 32 -24.242188 33.484375 -20.53125 33.484375 -15.65625 C 33.484375 -12.519531 32.753906 -9.773438 31.296875 -7.421875 C 29.847656 -5.066406 27.75 -3.238281 25 -1.9375 C 22.257812 -0.644531 19.003906 0 15.234375 0 L 12.546875 -0.046875 C 10.816406 -0.0976562 9.546875 -0.125 8.734375 -0.125 C 5.359375 -0.125 2.851562 -0.0820312 1.21875 0 L 1.21875 -0.859375 C 2.132812 -0.921875 2.800781 -1.035156 3.21875 -1.203125 C 3.632812 -1.378906 3.914062 -1.710938 4.0625 -2.203125 C 4.207031 -2.691406 4.28125 -3.488281 4.28125 -4.59375 L 4.28125 -26.046875 C 4.28125 -27.140625 4.203125 -27.929688 4.046875 -28.421875 C 3.890625 -28.910156 3.609375 -29.242188 3.203125 -29.421875 C 2.796875 -29.597656 2.132812 -29.710938 1.21875 -29.765625 L 1.21875 -30.625 C 2.539062 -30.539062 4.5 -30.5 7.09375 -30.5 L 8.65625 -30.5 L 10.5625 -30.546875 C 12.976562 -30.597656 14.664062 -30.625 15.625 -30.625 Z M 16.265625 -29.859375 C 15.367188 -29.859375 14.695312 -29.753906 14.25 -29.546875 C 13.800781 -29.347656 13.488281 -28.988281 13.3125 -28.46875 C 13.144531 -27.945312 13.0625 -27.164062 13.0625 -26.125 L 13.0625 -4.5 C 13.0625 -3.457031 13.144531 -2.675781 13.3125 -2.15625 C 13.488281 -1.644531 13.800781 -1.285156 14.25 -1.078125 C 14.695312 -0.878906 15.382812 -0.78125 16.3125 -0.78125 C 19.164062 -0.78125 21.226562 -2.007812 22.5 -4.46875 C 23.769531 -6.9375 24.40625 -10.609375 24.40625 -15.484375 C 24.40625 -20.359375 23.75 -23.972656 22.4375 -26.328125 C 21.125 -28.679688 19.066406 -29.859375 16.265625 -29.859375 Z M 16.265625 -29.859375 "/></g></g></g><g fill="#000000" fill-opacity="1"><g transform="translate(71.163773, 294.932733)"><g><path d="M 6.96875 -33.828125 C 8.46875 -33.828125 9.628906 -33.507812 10.453125 -32.875 C 11.273438 -32.25 11.6875 -31.328125 11.6875 -30.109375 C 11.6875 -28.898438 11.273438 -27.976562 10.453125 -27.34375 C 9.628906 -26.707031 8.46875 -26.390625 6.96875 -26.390625 C 5.4375 -26.390625 4.265625 -26.707031 3.453125 -27.34375 C 2.648438 -27.976562 2.25 -28.898438 2.25 -30.109375 C 2.25 -31.328125 2.648438 -32.25 3.453125 -32.875 C 4.265625 -33.507812 5.4375 -33.828125 6.96875 -33.828125 Z M 11.125 -4.03125 C 11.125 -2.84375 11.300781 -2.023438 11.65625 -1.578125 C 12.019531 -1.128906 12.648438 -0.90625 13.546875 -0.90625 L 13.546875 0 C 10.429688 -0.113281 8.378906 -0.171875 7.390625 -0.171875 C 6.410156 -0.171875 4.25 -0.113281 0.90625 0 L 0.90625 -0.90625 C 1.800781 -0.90625 2.425781 -1.128906 2.78125 -1.578125 C 3.144531 -2.023438 3.328125 -2.84375 3.328125 -4.03125 L 3.328125 -17.734375 C 3.328125 -19.066406 3.144531 -20.035156 2.78125 -20.640625 C 2.425781 -21.242188 1.800781 -21.546875 0.90625 -21.546875 L 0.90625 -22.453125 C 1.832031 -22.367188 2.726562 -22.328125 3.59375 -22.328125 C 6.59375 -22.328125 9.101562 -22.53125 11.125 -22.9375 Z M 11.125 -4.03125 "/></g></g></g><g fill="#000000" fill-opacity="1"><g transform="translate(85.437541, 294.932733)"><g><path d="M 19.203125 -22.28125 C 20.847656 -22.28125 21.960938 -22.335938 22.546875 -22.453125 L 22.546875 -21.546875 C 21.929688 -21.347656 21.375 -20.929688 20.875 -20.296875 C 20.375 -19.660156 19.90625 -18.675781 19.46875 -17.34375 L 13.625 0 C 13.164062 -0.0625 12.472656 -0.09375 11.546875 -0.09375 C 10.597656 -0.09375 9.894531 -0.0625 9.4375 0 L 1.90625 -19.125 C 1.269531 -20.738281 0.429688 -21.546875 -0.609375 -21.546875 L -0.609375 -22.453125 C 1.671875 -22.273438 4.238281 -22.1875 7.09375 -22.1875 C 8.539062 -22.1875 10.414062 -22.273438 12.71875 -22.453125 L 12.71875 -21.546875 C 11.820312 -21.546875 11.175781 -21.488281 10.78125 -21.375 C 10.394531 -21.257812 10.203125 -20.957031 10.203125 -20.46875 C 10.203125 -20.375 10.234375 -20.1875 10.296875 -19.90625 L 15.015625 -6.796875 L 17 -12.765625 C 17.550781 -14.429688 17.828125 -15.898438 17.828125 -17.171875 C 17.828125 -18.523438 17.535156 -19.578125 16.953125 -20.328125 C 16.378906 -21.078125 15.617188 -21.484375 14.671875 -21.546875 L 14.671875 -22.453125 C 15.734375 -22.335938 17.242188 -22.28125 19.203125 -22.28125 Z M 19.203125 -22.28125 "/></g></g></g><g fill="#000000" fill-opacity="1"><g transform="translate(107.92954, 294.932733)"><g><path d="M 19.390625 -22.28125 C 21.023438 -22.28125 22.132812 -22.335938 22.71875 -22.453125 L 22.71875 -21.546875 C 22.113281 -21.347656 21.554688 -20.929688 21.046875 -20.296875 C 20.546875 -19.660156 20.078125 -18.675781 19.640625 -17.34375 L 14.234375 -1.25 L 12.421875 3.984375 C 11.898438 5.484375 11.265625 6.519531 10.515625 7.09375 C 9.617188 7.789062 8.273438 8.140625 6.484375 8.140625 C 5.046875 8.140625 3.707031 7.796875 2.46875 7.109375 C 1.226562 6.429688 0.609375 5.414062 0.609375 4.0625 C 0.609375 3.050781 0.992188 2.242188 1.765625 1.640625 C 2.546875 1.035156 3.570312 0.734375 4.84375 0.734375 C 6.050781 0.734375 7 1.003906 7.6875 1.546875 C 8.382812 2.097656 8.734375 2.894531 8.734375 3.9375 C 8.734375 4.625 8.492188 5.28125 8.015625 5.90625 C 7.546875 6.53125 6.847656 6.984375 5.921875 7.265625 C 6.210938 7.328125 6.703125 7.359375 7.390625 7.359375 C 9.390625 7.359375 10.765625 6.203125 11.515625 3.890625 L 11.71875 3.15625 L 1.640625 -19.125 C 1.210938 -20.101562 0.785156 -20.75 0.359375 -21.0625 C -0.0546875 -21.382812 -0.460938 -21.546875 -0.859375 -21.546875 L -0.859375 -22.453125 C 1.441406 -22.273438 3.789062 -22.1875 6.1875 -22.1875 C 8.0625 -22.1875 10.148438 -22.273438 12.453125 -22.453125 L 12.453125 -21.546875 C 11.617188 -21.546875 10.976562 -21.488281 10.53125 -21.375 C 10.082031 -21.257812 9.859375 -21 9.859375 -20.59375 C 9.859375 -20.363281 9.914062 -20.132812 10.03125 -19.90625 L 15.359375 -7.21875 L 17.171875 -12.765625 C 17.722656 -14.429688 18 -15.898438 18 -17.171875 C 18 -18.523438 17.707031 -19.578125 17.125 -20.328125 C 16.550781 -21.078125 15.789062 -21.484375 14.84375 -21.546875 L 14.84375 -22.453125 C 15.90625 -22.335938 17.421875 -22.28125 19.390625 -22.28125 Z M 19.390625 -22.28125 "/></g></g></g><g fill="#000000" fill-opacity="1"><g transform="translate(130.810822, 294.932733)"><g><path d="M 6.53125 0.296875 C 4.6875 0.296875 3.296875 -0.195312 2.359375 -1.1875 C 1.421875 -2.1875 0.953125 -3.4375 0.953125 -4.9375 C 0.953125 -6.226562 1.289062 -7.300781 1.96875 -8.15625 C 2.644531 -9.007812 3.441406 -9.664062 4.359375 -10.125 C 5.285156 -10.582031 6.484375 -11.054688 7.953125 -11.546875 C 9.515625 -12.066406 10.65625 -12.539062 11.375 -12.96875 C 12.09375 -13.40625 12.453125 -14.015625 12.453125 -14.796875 L 12.453125 -18.640625 C 12.453125 -19.566406 12.222656 -20.390625 11.765625 -21.109375 C 11.304688 -21.828125 10.515625 -22.1875 9.390625 -22.1875 C 8.492188 -22.1875 7.6875 -21.941406 6.96875 -21.453125 C 7.945312 -21.109375 8.671875 -20.597656 9.140625 -19.921875 C 9.617188 -19.242188 9.859375 -18.488281 9.859375 -17.65625 C 9.859375 -16.53125 9.460938 -15.628906 8.671875 -14.953125 C 7.878906 -14.273438 6.921875 -13.9375 5.796875 -13.9375 C 4.671875 -13.9375 3.78125 -14.285156 3.125 -14.984375 C 2.476562 -15.691406 2.15625 -16.597656 2.15625 -17.703125 C 2.15625 -18.566406 2.375 -19.3125 2.8125 -19.9375 C 3.25 -20.570312 3.925781 -21.148438 4.84375 -21.671875 C 6.457031 -22.597656 8.765625 -23.0625 11.765625 -23.0625 C 13.347656 -23.0625 14.71875 -22.910156 15.875 -22.609375 C 17.03125 -22.304688 18.015625 -21.734375 18.828125 -20.890625 C 19.398438 -20.285156 19.78125 -19.53125 19.96875 -18.625 C 20.15625 -17.71875 20.25 -16.457031 20.25 -14.84375 L 20.25 -3.25 C 20.25 -2.519531 20.296875 -2.023438 20.390625 -1.765625 C 20.492188 -1.515625 20.675781 -1.390625 20.9375 -1.390625 C 21.144531 -1.390625 21.363281 -1.453125 21.59375 -1.578125 C 21.820312 -1.710938 22.035156 -1.863281 22.234375 -2.03125 L 22.671875 -1.296875 C 21.429688 -0.234375 19.65625 0.296875 17.34375 0.296875 C 15.613281 0.296875 14.398438 0.00390625 13.703125 -0.578125 C 13.015625 -1.171875 12.644531 -1.972656 12.59375 -2.984375 C 11.238281 -0.796875 9.21875 0.296875 6.53125 0.296875 Z M 10.859375 -3.15625 C 11.460938 -3.15625 11.992188 -3.398438 12.453125 -3.890625 L 12.453125 -13.015625 C 12.203125 -12.585938 11.726562 -12.023438 11.03125 -11.328125 C 10.25 -10.578125 9.65625 -9.847656 9.25 -9.140625 C 8.851562 -8.441406 8.65625 -7.488281 8.65625 -6.28125 C 8.65625 -4.195312 9.390625 -3.15625 10.859375 -3.15625 Z M 10.859375 -3.15625 "/></g></g></g><g fill="#000000" fill-opacity="1"><g transform="translate(153.778609, 294.932733)"><g><path d="M 18 -23.0625 C 20.300781 -23.0625 21.929688 -22.484375 22.890625 -21.328125 C 23.316406 -20.804688 23.628906 -20.101562 23.828125 -19.21875 C 24.035156 -18.34375 24.140625 -17.1875 24.140625 -15.75 L 24.140625 -4.03125 C 24.140625 -2.84375 24.316406 -2.023438 24.671875 -1.578125 C 25.035156 -1.128906 25.664062 -0.90625 26.5625 -0.90625 L 26.5625 0 C 23.445312 -0.113281 21.429688 -0.171875 20.515625 -0.171875 C 19.523438 -0.171875 17.472656 -0.113281 14.359375 0 L 14.359375 -0.90625 C 15.109375 -0.90625 15.628906 -1.128906 15.921875 -1.578125 C 16.210938 -2.023438 16.359375 -2.84375 16.359375 -4.03125 L 16.359375 -18.078125 C 16.359375 -19.003906 16.191406 -19.691406 15.859375 -20.140625 C 15.523438 -20.585938 14.984375 -20.8125 14.234375 -20.8125 C 13.398438 -20.8125 12.671875 -20.515625 12.046875 -19.921875 C 11.429688 -19.328125 11.125 -18.585938 11.125 -17.703125 L 11.125 -4.03125 C 11.125 -2.84375 11.265625 -2.023438 11.546875 -1.578125 C 11.835938 -1.128906 12.359375 -0.90625 13.109375 -0.90625 L 13.109375 0 C 10.222656 -0.113281 8.316406 -0.171875 7.390625 -0.171875 C 6.410156 -0.171875 4.25 -0.113281 0.90625 0 L 0.90625 -0.90625 C 1.800781 -0.90625 2.425781 -1.128906 2.78125 -1.578125 C 3.144531 -2.023438 3.328125 -2.84375 3.328125 -4.03125 L 3.328125 -17.734375 C 3.328125 -19.066406 3.144531 -20.035156 2.78125 -20.640625 C 2.425781 -21.242188 1.800781 -21.546875 0.90625 -21.546875 L 0.90625 -22.453125 C 1.832031 -22.367188 2.726562 -22.328125 3.59375 -22.328125 C 6.59375 -22.328125 9.101562 -22.53125 11.125 -22.9375 L 11.125 -19.8125 C 12.414062 -21.976562 14.707031 -23.0625 18 -23.0625 Z M 18 -23.0625 "/></g></g></g><g fill="#000000" fill-opacity="1"><g transform="translate(180.812253, 294.932733)"><g><path d="M 10 -23.0625 C 11.125 -23.0625 12.179688 -22.9375 13.171875 -22.6875 C 14.171875 -22.445312 14.929688 -22.179688 15.453125 -21.890625 C 15.765625 -21.710938 16.019531 -21.625 16.21875 -21.625 C 16.832031 -21.625 17.195312 -22.085938 17.3125 -23.015625 L 18.171875 -23.015625 C 18.054688 -21.515625 18 -18.921875 18 -15.234375 L 17.140625 -15.234375 C 16.898438 -17.128906 16.351562 -18.734375 15.5 -20.046875 C 14.65625 -21.359375 13.425781 -22.015625 11.8125 -22.015625 C 11.09375 -22.015625 10.488281 -21.796875 10 -21.359375 C 9.507812 -20.929688 9.265625 -20.34375 9.265625 -19.59375 C 9.265625 -18.644531 9.578125 -17.800781 10.203125 -17.0625 C 10.835938 -16.332031 11.835938 -15.429688 13.203125 -14.359375 C 13.253906 -14.335938 13.671875 -14.007812 14.453125 -13.375 C 16.066406 -12.039062 17.25 -10.863281 18 -9.84375 C 18.75 -8.820312 19.125 -7.5625 19.125 -6.0625 C 19.125 -4.789062 18.734375 -3.640625 17.953125 -2.609375 C 17.171875 -1.585938 16.109375 -0.796875 14.765625 -0.234375 C 13.429688 0.328125 11.972656 0.609375 10.390625 0.609375 C 8.566406 0.609375 7.078125 0.25 5.921875 -0.46875 C 5.429688 -0.726562 5.023438 -0.914062 4.703125 -1.03125 C 4.390625 -1.15625 4.078125 -1.21875 3.765625 -1.21875 C 3.210938 -1.21875 2.804688 -0.710938 2.546875 0.296875 L 1.6875 0.296875 C 1.800781 -1.335938 1.859375 -4.21875 1.859375 -8.34375 L 2.71875 -8.34375 C 2.976562 -5.976562 3.613281 -4.070312 4.625 -2.625 C 5.632812 -1.1875 6.90625 -0.46875 8.4375 -0.46875 C 9.15625 -0.46875 9.753906 -0.671875 10.234375 -1.078125 C 10.710938 -1.484375 10.953125 -2.078125 10.953125 -2.859375 C 10.953125 -3.660156 10.785156 -4.378906 10.453125 -5.015625 C 10.117188 -5.648438 9.710938 -6.21875 9.234375 -6.71875 C 8.753906 -7.226562 7.984375 -7.957031 6.921875 -8.90625 C 5.710938 -10.03125 4.789062 -10.925781 4.15625 -11.59375 C 3.519531 -12.257812 2.976562 -13.03125 2.53125 -13.90625 C 2.082031 -14.789062 1.859375 -15.765625 1.859375 -16.828125 C 1.859375 -18.066406 2.234375 -19.160156 2.984375 -20.109375 C 3.734375 -21.066406 4.726562 -21.796875 5.96875 -22.296875 C 7.207031 -22.804688 8.550781 -23.0625 10 -23.0625 Z M 10 -23.0625 "/></g></g></g><g fill="#000000" fill-opacity="1"><g transform="translate(201.228065, 294.932733)"><g><path d="M 10.984375 -19.8125 C 12.285156 -21.976562 14.582031 -23.0625 17.875 -23.0625 C 20.175781 -23.0625 21.800781 -22.484375 22.75 -21.328125 C 23.1875 -20.804688 23.503906 -20.101562 23.703125 -19.21875 C 23.910156 -18.34375 24.015625 -17.1875 24.015625 -15.75 L 24.015625 -4.03125 C 24.015625 -2.84375 24.191406 -2.023438 24.546875 -1.578125 C 24.910156 -1.128906 25.539062 -0.90625 26.4375 -0.90625 L 26.4375 0 C 23.320312 -0.113281 21.300781 -0.171875 20.375 -0.171875 C 19.394531 -0.171875 17.347656 -0.113281 14.234375 0 L 14.234375 -0.90625 C 14.984375 -0.90625 15.5 -1.128906 15.78125 -1.578125 C 16.070312 -2.023438 16.21875 -2.84375 16.21875 -4.03125 L 16.21875 -18.078125 C 16.21875 -19.003906 16.050781 -19.691406 15.71875 -20.140625 C 15.394531 -20.585938 14.859375 -20.8125 14.109375 -20.8125 C 13.265625 -20.8125 12.53125 -20.515625 11.90625 -19.921875 C 11.289062 -19.328125 10.984375 -18.585938 10.984375 -17.703125 L 10.984375 -4.03125 C 10.984375 -2.84375 11.128906 -2.023438 11.421875 -1.578125 C 11.710938 -1.128906 12.234375 -0.90625 12.984375 -0.90625 L 12.984375 0 C 10.097656 -0.113281 8.191406 -0.171875 7.265625 -0.171875 C 6.285156 -0.171875 4.125 -0.113281 0.78125 0 L 0.78125 -0.90625 C 1.675781 -0.90625 2.300781 -1.128906 2.65625 -1.578125 C 3.019531 -2.023438 3.203125 -2.84375 3.203125 -4.03125 L 3.203125 -28.640625 C 3.203125 -29.960938 3.019531 -30.925781 2.65625 -31.53125 C 2.300781 -32.144531 1.675781 -32.453125 0.78125 -32.453125 L 0.78125 -33.359375 C 1.675781 -33.273438 2.570312 -33.234375 3.46875 -33.234375 C 6.457031 -33.234375 8.960938 -33.429688 10.984375 -33.828125 Z M 10.984375 -19.8125 "/></g></g></g><g fill="#000000" fill-opacity="1"><g transform="translate(228.131956, 294.932733)"><g/></g></g><g fill="#000000" fill-opacity="1"><g transform="translate(237.777562, 294.932733)"><g><path d="M 18.34375 -31.234375 C 20.1875 -31.234375 21.769531 -30.988281 23.09375 -30.5 C 24.425781 -30.007812 25.640625 -29.316406 26.734375 -28.421875 C 27.054688 -28.160156 27.347656 -28.03125 27.609375 -28.03125 C 27.890625 -28.03125 28.117188 -28.238281 28.296875 -28.65625 C 28.472656 -29.082031 28.601562 -29.738281 28.6875 -30.625 L 29.6875 -30.625 C 29.5625 -28.582031 29.5 -24.976562 29.5 -19.8125 L 28.515625 -19.8125 C 28.304688 -22.09375 27.925781 -23.894531 27.375 -25.21875 C 26.832031 -26.550781 25.882812 -27.675781 24.53125 -28.59375 C 23.925781 -29 23.226562 -29.316406 22.4375 -29.546875 C 21.644531 -29.773438 20.859375 -29.890625 20.078125 -29.890625 C 17.992188 -29.890625 16.3125 -29.160156 15.03125 -27.703125 C 13.75 -26.253906 12.84375 -24.414062 12.3125 -22.1875 C 11.78125 -19.96875 11.515625 -17.648438 11.515625 -15.234375 C 11.515625 -10.210938 12.125 -6.460938 13.34375 -3.984375 C 14.570312 -1.503906 16.28125 -0.265625 18.46875 -0.265625 C 19.363281 -0.265625 20.070312 -0.4375 20.59375 -0.78125 C 21.195312 -1.207031 21.5 -1.925781 21.5 -2.9375 L 21.5 -7.265625 C 21.5 -8.710938 21.382812 -9.773438 21.15625 -10.453125 C 20.925781 -11.128906 20.515625 -11.585938 19.921875 -11.828125 C 19.328125 -12.078125 18.398438 -12.226562 17.140625 -12.28125 L 17.140625 -13.15625 C 19.097656 -13.0625 21.847656 -13.015625 25.390625 -13.015625 C 28.367188 -13.015625 30.59375 -13.0625 32.0625 -13.15625 L 32.0625 -12.28125 C 31.539062 -12.226562 31.15625 -12.113281 30.90625 -11.9375 C 30.664062 -11.769531 30.5 -11.4375 30.40625 -10.9375 C 30.320312 -10.445312 30.28125 -9.65625 30.28125 -8.5625 L 30.28125 0 L 29.421875 0 C 29.390625 -0.601562 29.257812 -1.164062 29.03125 -1.6875 C 28.800781 -2.207031 28.484375 -2.46875 28.078125 -2.46875 C 27.472656 -2.46875 26.492188 -2.132812 25.140625 -1.46875 C 22.253906 -0.0820312 19.816406 0.609375 17.828125 0.609375 C 12.460938 0.609375 8.410156 -0.742188 5.671875 -3.453125 C 2.929688 -6.171875 1.5625 -10.039062 1.5625 -15.0625 C 1.5625 -18.226562 2.273438 -21.035156 3.703125 -23.484375 C 5.128906 -25.941406 7.109375 -27.847656 9.640625 -29.203125 C 12.179688 -30.554688 15.082031 -31.234375 18.34375 -31.234375 Z M 18.34375 -31.234375 "/></g></g></g><g fill="#000000" fill-opacity="1"><g transform="translate(270.477473, 294.932733)"><g><path d="M 6.53125 0.296875 C 4.6875 0.296875 3.296875 -0.195312 2.359375 -1.1875 C 1.421875 -2.1875 0.953125 -3.4375 0.953125 -4.9375 C 0.953125 -6.226562 1.289062 -7.300781 1.96875 -8.15625 C 2.644531 -9.007812 3.441406 -9.664062 4.359375 -10.125 C 5.285156 -10.582031 6.484375 -11.054688 7.953125 -11.546875 C 9.515625 -12.066406 10.65625 -12.539062 11.375 -12.96875 C 12.09375 -13.40625 12.453125 -14.015625 12.453125 -14.796875 L 12.453125 -18.640625 C 12.453125 -19.566406 12.222656 -20.390625 11.765625 -21.109375 C 11.304688 -21.828125 10.515625 -22.1875 9.390625 -22.1875 C 8.492188 -22.1875 7.6875 -21.941406 6.96875 -21.453125 C 7.945312 -21.109375 8.671875 -20.597656 9.140625 -19.921875 C 9.617188 -19.242188 9.859375 -18.488281 9.859375 -17.65625 C 9.859375 -16.53125 9.460938 -15.628906 8.671875 -14.953125 C 7.878906 -14.273438 6.921875 -13.9375 5.796875 -13.9375 C 4.671875 -13.9375 3.78125 -14.285156 3.125 -14.984375 C 2.476562 -15.691406 2.15625 -16.597656 2.15625 -17.703125 C 2.15625 -18.566406 2.375 -19.3125 2.8125 -19.9375 C 3.25 -20.570312 3.925781 -21.148438 4.84375 -21.671875 C 6.457031 -22.597656 8.765625 -23.0625 11.765625 -23.0625 C 13.347656 -23.0625 14.71875 -22.910156 15.875 -22.609375 C 17.03125 -22.304688 18.015625 -21.734375 18.828125 -20.890625 C 19.398438 -20.285156 19.78125 -19.53125 19.96875 -18.625 C 20.15625 -17.71875 20.25 -16.457031 20.25 -14.84375 L 20.25 -3.25 C 20.25 -2.519531 20.296875 -2.023438 20.390625 -1.765625 C 20.492188 -1.515625 20.675781 -1.390625 20.9375 -1.390625 C 21.144531 -1.390625 21.363281 -1.453125 21.59375 -1.578125 C 21.820312 -1.710938 22.035156 -1.863281 22.234375 -2.03125 L 22.671875 -1.296875 C 21.429688 -0.234375 19.65625 0.296875 17.34375 0.296875 C 15.613281 0.296875 14.398438 0.00390625 13.703125 -0.578125 C 13.015625 -1.171875 12.644531 -1.972656 12.59375 -2.984375 C 11.238281 -0.796875 9.21875 0.296875 6.53125 0.296875 Z M 10.859375 -3.15625 C 11.460938 -3.15625 11.992188 -3.398438 12.453125 -3.890625 L 12.453125 -13.015625 C 12.203125 -12.585938 11.726562 -12.023438 11.03125 -11.328125 C 10.25 -10.578125 9.65625 -9.847656 9.25 -9.140625 C 8.851562 -8.441406 8.65625 -7.488281 8.65625 -6.28125 C 8.65625 -4.195312 9.390625 -3.15625 10.859375 -3.15625 Z M 10.859375 -3.15625 "/></g></g></g><g fill="#000000" fill-opacity="1"><g transform="translate(293.44526, 294.932733)"><g><path d="M 16.703125 -23.0625 C 18.117188 -23.0625 19.132812 -22.628906 19.75 -21.765625 C 20.375 -20.898438 20.6875 -19.875 20.6875 -18.6875 C 20.6875 -17.394531 20.316406 -16.363281 19.578125 -15.59375 C 18.835938 -14.832031 17.878906 -14.453125 16.703125 -14.453125 C 15.460938 -14.453125 14.507812 -14.734375 13.84375 -15.296875 C 13.175781 -15.859375 12.84375 -16.613281 12.84375 -17.5625 C 12.84375 -19.269531 13.582031 -20.613281 15.0625 -21.59375 C 14.539062 -21.59375 14.078125 -21.488281 13.671875 -21.28125 C 12.953125 -20.96875 12.347656 -20.457031 11.859375 -19.75 C 11.367188 -19.039062 11.125 -18.269531 11.125 -17.4375 L 11.125 -4.453125 C 11.125 -3.097656 11.40625 -2.164062 11.96875 -1.65625 C 12.53125 -1.15625 13.488281 -0.90625 14.84375 -0.90625 L 14.84375 0 C 14.46875 0 14.148438 -0.015625 13.890625 -0.046875 C 10.859375 -0.128906 8.835938 -0.171875 7.828125 -0.171875 C 6.929688 -0.171875 4.925781 -0.128906 1.8125 -0.046875 C 1.582031 -0.015625 1.28125 0 0.90625 0 L 0.90625 -0.90625 C 1.800781 -0.90625 2.425781 -1.128906 2.78125 -1.578125 C 3.144531 -2.023438 3.328125 -2.84375 3.328125 -4.03125 L 3.328125 -17.734375 C 3.328125 -19.066406 3.144531 -20.035156 2.78125 -20.640625 C 2.425781 -21.242188 1.800781 -21.546875 0.90625 -21.546875 L 0.90625 -22.453125 C 1.832031 -22.367188 2.726562 -22.328125 3.59375 -22.328125 C 6.59375 -22.328125 9.101562 -22.53125 11.125 -22.9375 L 11.125 -19.8125 C 12.21875 -21.976562 14.078125 -23.0625 16.703125 -23.0625 Z M 16.703125 -23.0625 "/></g></g></g><g fill="#000000" fill-opacity="1"><g transform="translate(314.250343, 294.932733)"><g><path d="M 22.328125 -18.078125 C 21.722656 -18.078125 21.195312 -18.285156 20.75 -18.703125 C 20.300781 -19.128906 20.078125 -19.71875 20.078125 -20.46875 C 20.078125 -21.15625 20.28125 -21.90625 20.6875 -22.71875 C 19.414062 -22.195312 18.476562 -21.460938 17.875 -20.515625 C 18.9375 -19.390625 19.46875 -17.929688 19.46875 -16.140625 C 19.46875 -13.859375 18.625 -12.132812 16.9375 -10.96875 C 15.25 -9.800781 12.992188 -9.21875 10.171875 -9.21875 C 9.617188 -9.21875 9.210938 -9.234375 8.953125 -9.265625 C 8.203125 -8.742188 7.828125 -8.132812 7.828125 -7.4375 C 7.828125 -6.519531 8.347656 -6.0625 9.390625 -6.0625 L 13.578125 -6.0625 C 16.523438 -6.0625 18.828125 -5.5625 20.484375 -4.5625 C 22.140625 -3.570312 22.96875 -2.019531 22.96875 0.09375 C 22.96875 1.59375 22.484375 2.945312 21.515625 4.15625 C 20.554688 5.363281 19.070312 6.328125 17.0625 7.046875 C 15.0625 7.773438 12.5625 8.140625 9.5625 8.140625 C 6.59375 8.140625 4.253906 7.804688 2.546875 7.140625 C 0.847656 6.472656 0 5.535156 0 4.328125 C 0 3.492188 0.414062 2.726562 1.25 2.03125 C 2.09375 1.34375 3.363281 0.796875 5.0625 0.390625 L 5.5 1.078125 C 4.71875 2.035156 4.328125 2.957031 4.328125 3.84375 C 4.328125 4.96875 4.835938 5.835938 5.859375 6.453125 C 6.878906 7.078125 8.316406 7.390625 10.171875 7.390625 C 12.066406 7.390625 13.523438 7.007812 14.546875 6.25 C 15.578125 5.488281 16.09375 4.472656 16.09375 3.203125 C 16.09375 2.304688 15.753906 1.59375 15.078125 1.0625 C 14.398438 0.53125 13.210938 0.265625 11.515625 0.265625 L 9.171875 0.265625 C 7.210938 0.265625 5.710938 -0.109375 4.671875 -0.859375 C 3.628906 -1.609375 3.109375 -2.617188 3.109375 -3.890625 C 3.109375 -5.046875 3.519531 -6.054688 4.34375 -6.921875 C 5.164062 -7.785156 6.359375 -8.59375 7.921875 -9.34375 C 5.722656 -9.632812 3.992188 -10.347656 2.734375 -11.484375 C 1.484375 -12.628906 0.859375 -14.179688 0.859375 -16.140625 C 0.859375 -18.421875 1.703125 -20.144531 3.390625 -21.3125 C 5.078125 -22.476562 7.335938 -23.0625 10.171875 -23.0625 C 13.191406 -23.0625 15.523438 -22.425781 17.171875 -21.15625 C 17.722656 -21.90625 18.382812 -22.492188 19.15625 -22.921875 C 19.9375 -23.359375 20.757812 -23.578125 21.625 -23.578125 C 22.582031 -23.578125 23.320312 -23.3125 23.84375 -22.78125 C 24.363281 -22.25 24.625 -21.5625 24.625 -20.71875 C 24.625 -19.914062 24.40625 -19.273438 23.96875 -18.796875 C 23.53125 -18.316406 22.984375 -18.078125 22.328125 -18.078125 Z M 10.171875 -10 C 10.742188 -10 11.179688 -10.46875 11.484375 -11.40625 C 11.785156 -12.34375 11.9375 -13.921875 11.9375 -16.140625 C 11.9375 -18.359375 11.785156 -19.9375 11.484375 -20.875 C 11.179688 -21.8125 10.742188 -22.28125 10.171875 -22.28125 C 9.585938 -22.28125 9.144531 -21.8125 8.84375 -20.875 C 8.539062 -19.9375 8.390625 -18.359375 8.390625 -16.140625 C 8.390625 -13.921875 8.539062 -12.34375 8.84375 -11.40625 C 9.144531 -10.46875 9.585938 -10 10.171875 -10 Z M 10.171875 -10 "/></g></g></g></svg>